#!OML:ASF F:\VICON\USERDATA\INSTALL\rory3\rory3.ASF
:FULLY-SPECIFIED
:DEGREES
73
root -0.23857726501106322 17.846501839623233 29.174884557971012 4.474705912684546 -0.2940827389531079 -3.45130096433667
lfemur -27.340021562228525 4.332139643654214 -17.61529658526304
ltibia 79.35443548671185
lfoot 4.666484859719466 -8.180190041117726
ltoes -12.46705013596414
rfemur -17.840273600655163 2.646833038179727 30.850249344573662
rtibia 63.14676408975554
rfoot 20.262853132842118 -4.373961917162375
rtoes -10.143486115803908
lowerback 17.390248715665116 0.8648699284303735 2.0440851376416465
upperback -1.200269923916295 2.7755016076692094 2.6441433845802447
thorax -9.850262242574708 -0.01072499380489933 1.4793242327524587
lowerneck -20.53080037935704 -3.1939990952786665 -2.4006921694816734
upperneck 13.65323580130643 -4.07020882514067 3.483032509199926
head 7.652921981148228 -1.8208022241348987 0.9168006449912827
lclavicle -1.7357409906226849e-15 1.764615885195505e-15
lhumerus -56.89375608303477 -13.822325464984484 98.24327255680691
lradius 110.54621059494231
lwrist 33.96138850796983
lhand -24.853917813794105 3.0491505245635806
lfingers 7.12502
lthumb 1.6446069903905527 33.029107604006555
rclavicle -1.7256696182475044e-15 1.785927533548683e-15
rhumerus -52.46969564489738 11.82206122394093 -98.5471204028716
rradius 114.450270754573
rwrist -11.083291897458503
rhand -16.385917962752995 40.16798726136331
rfingers 7.12502
rthumb 9.745538039195122 10.393952523003854
74
root -0.24833589420545174 17.80774448171338 30.193721220232078 4.597022208450347 -0.5221090123773983 -3.560261486116128
lfemur -30.243229576187048 5.208757006465682 -17.13086177574244
ltibia 76.67289731904971
lfoot 4.930585138762416 -8.103287961341437
ltoes -11.33428305429858
rfemur -16.577902963057067 2.7021859458232287 31.196351096942063
rtibia 63.28265198556126
rfoot 19.446978324127784 -4.986438188058541
rtoes -9.984847153311211
lowerback 17.357840848927435 0.9787453226213447 2.1967591334336527
upperback -1.2749672802653353 3.079898240179135 2.585431638853291
thorax -9.887068387966083 0.1862673799498703 0.9782497620946007
lowerneck -20.421396146320877 -3.2650258915150303 -2.3895427831493037
upperneck 13.629499358064923 -4.1801426450868036 3.5750613106537097
head 7.653997934748447 -1.883585308454469 0.9234034057049132
lclavicle -1.7357410716375872e-15 1.7646157779123475e-15
lhumerus -58.11633829893434 -13.475130580659346 97.88547704304958
lradius 109.4900257212608
lwrist 34.139249907939615
lhand -24.835546933339135 3.040772529390705
lfingers 7.12502
lthumb 1.6544154741899173 33.018473413742896
rclavicle -1.7256696094707928e-15 1.785927539195203e-15
rhumerus -52.26132538338297 11.894392217738696 -98.60471205675545
rradius 114.5591096156729
rwrist -10.957504229619103
rhand -16.40756684690511 40.160769229424425
rfingers 7.12502
rthumb 9.723446199702515 10.371469098894627
75
root -0.25130245225610687 17.7608407608285 31.4077873559689 4.762268747028869 -0.7489827194924018 -3.6535101164394064
lfemur -32.808440500055056 5.347087613311151 -16.78421509387246
ltibia 71.20952629055998
lfoot 4.400936798072408 -8.272388895668819
ltoes -11.055650068351222
rfemur -14.576939879646947 2.9118142263652302 31.588505808462692
rtibia 63.0689276915474
rfoot 19.93479670426568 -4.916046219907912
rtoes -7.164785300803901
lowerback 17.292356524029863 1.07071400804742 2.296929510891574
upperback -1.334402677286463 3.3170958982127496 2.510102541477936
thorax -9.908718150866045 0.40097250164159504 0.4391835723205395
lowerneck -20.333714947609607 -3.343543477626088 -2.37974524369936
upperneck 13.57292828273203 -4.26804062102456 3.6739828148144134
head 7.650165312594069 -1.9297476852356588 0.9199469253724355
lclavicle -1.7357411671766144e-15 1.7646156431382842e-15
lhumerus -59.90577113607633 -13.351091765467604 97.30670903169471
lradius 108.3679090152966
lwrist 34.189804429326564
lhand -24.817349332902076 3.0155093254117373
lfingers 7.12502
lthumb 1.6628998679038631 32.98893638128601
rclavicle -1.725669580440988e-15 1.7859275606558162e-15
rhumerus -52.10117629864458 11.834646249831957 -98.49825095751379
rradius 114.4666648710554
rwrist -10.948418487396662
rhand -16.4215821740318 40.146733720122754
rfingers 7.12502
rthumb 9.70563975165539 10.3508471204264
76
root -0.25110343013343744 17.700087887515433 32.46415595438839 4.940103203797535 -0.9831280219179196 -3.778050532633266
lfemur -33.86273142263663 4.927361223755871 -16.247294437116068
ltibia 62.7974383268609
lfoot 4.223723929654607 -7.855298385994601
ltoes -10.9691402632064
rfemur -13.224856393600831 3.021747911321782 31.783316086967616
rtibia 62.45134642344424
rfoot 19.605094644590764 -4.976735752937371
rtoes -1.9954841153317209
lowerback 17.20766427470102 1.1415144598809466 2.35107666567026
upperback -1.3887749466817279 3.4720405507752146 2.403498925368438
thorax -9.914186544330333 0.6232174857554205 -0.13111925020641313
lowerneck -20.275195650796594 -3.4233129206791806 -2.371666205934348
upperneck 13.459001858835338 -4.4205565410728305 3.727301949575665
head 7.6467393464636695 -1.9477957119258793 0.913154908719759
lclavicle -1.7357411887743206e-15 1.7646156726264748e-15
lhumerus -61.41506097472 -13.204474192630697 96.57404973869717
lradius 107.16278046837645
lwrist 34.11155339130041
lhand -24.800848233915136 2.97325846956316
lfingers 7.12502
lthumb 1.6723911095909618 32.94541389332073
rclavicle -1.7256695653161837e-15 1.7859275698349607e-15
rhumerus -52.06285249287224 11.686792891124814 -98.37712744892136
rradius 114.2292072171445
rwrist -11.02793755213751
rhand -16.421990793628616 40.13042842189913
rfingers 7.12502
rthumb 9.698042547199327 10.333584705124226
77
root -0.2506710820400596 17.624641102559192 33.16976328584916 5.086276254616946 -1.2494658250589183 -3.9163697097239885
lfemur -34.111813879892416 3.6049763601141014 -15.743788659577778
ltibia 51.95484453562594
lfoot 4.417959020967144 -7.8903301075027015
ltoes -10.5173749905498
rfemur -12.128983864443189 2.9566993610171064 31.87155881817306
rtibia 61.49697949025275
rfoot 19.29273656634782 -4.672897431421107
rtoes 4.77583245496745
lowerback 17.132612593883255 1.2032531752727706 2.386104429400605
upperback -1.437743964328998 3.552172583046095 2.2631480518012084
thorax -9.903489621052062 0.8402747803947551 -0.7223738207172036
lowerneck -20.254870586894373 -3.509672216858693 -2.37031817077335
upperneck 13.417924609782018 -4.514048674836861 3.7904591137058805
head 7.650854260627831 -1.9350402354842138 0.91458054829496
lclavicle -1.7357412640213548e-15 1.7646156743569879e-15
lhumerus -61.96677661340975 -12.902981943127267 95.91061849542336
lradius 105.85504645848684
lwrist 33.94612699244223
lhand -24.783660211647458 2.9180116988629052
lfingers 7.12502
lthumb 1.6820018754653159 32.887234045650196
rclavicle -1.7256695374372565e-15 1.7859275903415025e-15
rhumerus -52.098997948838054 11.459658270240178 -98.27253498003955
rradius 113.88061476980249
rwrist -11.07278742114586
rhand -16.417745486977644 40.10878680405891
rfingers 7.12502
rthumb 9.712754377408856 10.32644456792163
78
root -0.25220259248353905 17.54187274197277 33.63059557225417 5.171243930879395 -1.52068112285143 -4.010904677546974
lfemur -33.70381580359608 1.1839472025653701 -15.242999538028116
ltibia 40.712782026691485
lfoot 5.043368378948563 -7.801206175872734
ltoes -10.365174303823359
rfemur -10.998813911725973 2.9543057922402722 31.94188696110934
rtibia 60.50629451478781
rfoot 17.48635172670795 -5.1349730597456595
rtoes 11.122895483599763
lowerback 17.080453693533595 1.2619781702480235 2.397634446542352
upperback -1.4633896953187284 3.5896216436700303 2.10616961701537
thorax -9.87251342043243 1.0436619667670444 -1.3022242734750846
lowerneck -20.25679279137956 -3.584955914101365 -2.366720800340768
upperneck 13.365942264864719 -4.621814793216305 3.8061320933095075
head 7.652379607705892 -1.9173200106674944 0.9131056892224765
lclavicle -1.7357414358006272e-15 1.7646155169184078e-15
lhumerus -61.55560768342442 -12.312481883550934 95.40290090248054
lradius 104.4579689056202
lwrist 33.73771687351148
lhand -24.764483576780194 2.8507807684767292
lfingers 7.12502
lthumb 1.6905517589598587 32.814043873207595
rclavicle -1.7256695447690071e-15 1.7859275832781386e-15
rhumerus -51.968254627245564 11.342894982444706 -98.14122714276125
rradius 113.40859544940693
rwrist -11.017137907794226
rhand -16.419697886808322 40.07858613700575
rfingers 7.12502
rthumb 9.743895682681842 10.326929407451122
79
root -0.2555092097116214 17.463666596456918 34.065112586406975 5.182930298824025 -1.7474661057954575 -4.045042381640304
lfemur -32.24315540228992 -1.891984159208729 -14.66933715209518
ltibia 31.174333593108752
lfoot 6.276485263633531 -8.065773787744355
ltoes -10.539177269913818
rfemur -9.97984206936433 2.9272900477378716 31.921915294392722
rtibia 60.0434177860389
rfoot 18.058927589468198 -5.170637302935971
rtoes 14.521048182049716
lowerback 17.04492586724037 1.3094504920448127 2.3506406697302307
upperback -1.455565531362846 3.5870038421820154 1.9283778926623112
thorax -9.81958405442913 1.2263522178232296 -1.8277307062787704
lowerneck -20.272853410609805 -3.6455776738366623 -2.3598037906175513
upperneck 13.361743701091815 -4.624968136613083 3.844191182237509
head 7.649596255790923 -1.9093981592138707 0.9096519816477266
lclavicle -1.735741483105908e-15 1.7646154469273944e-15
lhumerus -61.129780908067175 -11.814989632548128 94.9684733494508
lradius 103.0373720070402
lwrist 33.5420975287573
lhand -24.74677292772105 2.7722421761038527
lfingers 7.12502
lthumb 1.6985840488142192 32.7303923349674
rclavicle -1.7256695287148026e-15 1.785927595593544e-15
rhumerus -51.944063733088946 11.259646897563947 -98.09390216817388
rradius 112.81975266824438
rwrist -10.834630318075149
rhand -16.420850348235245 40.04921126686195
rfingers 7.12502
rthumb 9.780240907354326 10.331569935258463
80
root -0.2605204321327367 17.394229807836844 34.4093187099076 5.1090134564564655 -1.9515399741670603 -4.034802397235317
lfemur -30.583096916467362 -4.273178446757234 -14.625796635990207
ltibia 24.960377071325595
lfoot 4.411080816326706 -8.653069775444541
ltoes -10.796338478214562
rfemur -10.434409297057162 2.6273751844147615 31.408879834746486
rtibia 60.7197982824993
rfoot 18.192961805062453 -5.291563219006589
rtoes 14.823254851873301
lowerback 17.02903254744477 1.34423053916776 2.241978041986868
upperback -1.4153622574528772 3.5039282504439395 1.715728791730402
thorax -9.744930883885242 1.3859261377148375 -2.250074201545632
lowerneck -20.293236940334683 -3.68826359499352 -2.34715220433722
upperneck 13.277475581439374 -4.723327072961609 3.8300742327788297
head 7.638487636333728 -1.9289166101006825 0.9096312079441566
lclavicle -1.7357415185505363e-15 1.7646154292383026e-15
lhumerus -60.60950399005864 -11.588469340178008 94.80565864973997
lradius 101.70563797728116
lwrist 33.3122564858737
lhand -24.738673477603584 2.6758934284022264
lfingers 7.12502
lthumb 1.7057170244452466 32.63922612277568
rclavicle -1.725669522317181e-15 1.785927599994856e-15
rhumerus -52.03958041456215 11.252353974906072 -98.16413369506195
rradius 112.17946499482973
rwrist -10.52084510055304
rhand -16.4085016991775 40.031105703527004
rfingers 7.12502
rthumb 9.814221018075898 10.3335117602415
